<?xml version="1.0" encoding="UTF-8"?>
<svg width="30px" height="30px" viewBox="0 0 30 30" version="1.1" xmlns="http://www.w3.org/2000/svg">
    <g id="wi-thunderstorm" fill="#FFFFFF" stroke="none">
        <path d="M4.63,16.91c0,1.11,0.33,2.1,0.99,2.97s1.52,1.47,2.58,1.79l-0.66,1.68c-0.03,0.14,0.02,0.22,0.14,0.22h2.13l-0.98,4.3h0.28l3.92-5.75c0.04-0.04,0.04-0.09,0.01-0.14c-0.03-0.05-0.08-0.07-0.15-0.07h-2.18l2.48-4.64c0.07-0.14,0.02-0.22-0.14-0.22h-2.94c-0.09,0-0.17,0.05-0.23,0.15l-1.07,2.87c-0.71-0.18-1.3-0.57-1.77-1.16c-0.47-0.59-0.7-1.26-0.7-2.01c0-0.83,0.28-1.55,0.85-2.17c0.57-0.61,1.27-0.97,2.1-1.07l0.53-0.07c0.13,0,0.2-0.06,0.2-0.18l0.07-0.51c0.11-1.08,0.56-1.99,1.37-2.72c0.81-0.73,1.76-1.1,2.85-1.1c1.09,0,2.04,0.37,2.85,1.1c0.82,0.73,1.28,1.64,1.4,2.72l0.07,0.58c0,0.11,0.06,0.17,0.18,0.17h1.6c0.91,0,1.68,0.32,2.32,0.95c0.64,0.63,0.96,1.39,0.96,2.28c0,0.85-0.3,1.59-0.89,2.21c-0.59,0.62-1.32,0.97-2.19,1.04c-0.13,0-0.2,0.06-0.2,0.18v1.37c0,0.11,0.07,0.17,0.2,0.17c1.33-0.04,2.46-0.55,3.39-1.51c0.93-0.96,1.39-2.11,1.39-3.45c0-0.9-0.22-1.73-0.67-2.49c-0.44-0.76-1.05-1.36-1.81-1.8c-0.77-0.44-1.6-0.66-2.5-0.66h-0.32c-0.33-1.33-1.04-2.42-2.11-3.26s-2.3-1.27-3.68-1.27c-1.41,0-2.67,0.44-3.76,1.31s-1.79,1.99-2.1,3.36c-1.11,0.26-2.02,0.83-2.74,1.73S4.63,15.76,4.63,16.91z"/>
        <path d="M16.85,23.58c0,0.07,0.01,0.13,0.04,0.18l1.63,3.17c0.02,0.07,0.07,0.1,0.15,0.1h2.04c0.05,0,0.09-0.02,0.11-0.07c0.02-0.05,0.02-0.09-0.01-0.14l-1.63-3.17c-0.02-0.07-0.07-0.1-0.15-0.1h-2.04C16.91,23.54,16.85,23.55,16.85,23.58z"/>
    </g>
</svg>
